<svg width="24" height="24" viewBox="0 0 24 24" fill="none" xmlns="http://www.w3.org/2000/svg">
<path d="M3.68723 19.9072C3.28551 20.0582 2.90387 20.0249 2.54232 19.8076C2.18077 19.5909 2 19.275 2 18.8598V14.6421C2 14.3779 2.08034 14.1421 2.24103 13.9345C2.40172 13.7269 2.62267 13.5948 2.90387 13.5382L11.6413 11.5001L2.90387 9.46201C2.62267 9.4054 2.40172 9.2733 2.24103 9.06572C2.08034 8.85814 2 8.62225 2 8.35805V4.14035C2 3.72518 2.18077 3.4089 2.54232 3.19151C2.90387 2.97487 3.28551 2.94203 3.68723 3.093L22.2468 10.4527C22.7489 10.6603 23 11.0094 23 11.5001C23 11.9907 22.7489 12.3399 22.2468 12.5474L3.68723 19.9072Z" fill="#C5C8CF"/>
</svg>
