<svg width="16" height="16" viewBox="0 0 16 16" fill="none" xmlns="http://www.w3.org/2000/svg">
<path fill-rule="evenodd" clip-rule="evenodd" d="M1.88322 6.84809C1.88322 9.59011 4.10607 11.813 6.84809 11.813C9.59011 11.813 11.813 9.59011 11.813 6.84809C11.813 4.10607 9.59011 1.88322 6.84809 1.88322C4.10607 1.88322 1.88322 4.10607 1.88322 6.84809ZM6.84809 0C3.06599 0 0 3.06599 0 6.84809C0 10.6302 3.06599 13.6962 6.84809 13.6962C10.6302 13.6962 13.6962 10.6302 13.6962 6.84809C13.6962 3.06599 10.6302 0 6.84809 0Z" fill="#A5B6FF"/>
<path fill-rule="evenodd" clip-rule="evenodd" d="M11.21 9.88062L16.0004 14.6711L14.6688 16.0027L9.87832 11.2123L11.21 9.88062Z" fill="#A5B6FF"/>
</svg>
